<?xml version="1.0" standalone="no"?><!DOCTYPE svg PUBLIC "-//W3C//DTD SVG 1.1//EN" "http://www.w3.org/Graphics/SVG/1.1/DTD/svg11.dtd"><svg t="1776160097172" class="icon" viewBox="0 0 1024 1024" version="1.1" xmlns="http://www.w3.org/2000/svg" p-id="5420" xmlns:xlink="http://www.w3.org/1999/xlink" width="200" height="200"><path d="M636.535467 785.066667a13.755733 13.755733 0 0 1-13.141334-9.728L545.672533 521.728l-92.791466 78.848 1.1264 137.130667a13.824 13.824 0 0 1-3.9424 9.7792l-22.9888 23.432533a13.7216 13.7216 0 0 1-22.6304-4.676267l-49.732267-128.887466-133.461333-57.480534a13.789867 13.789867 0 0 1-4.420267-22.289066l22.8864-23.534934a13.755733 13.755733 0 0 1 10.530133-4.1472l139.9808 6.877867 78.848-96.989867-254.685866-81.1008a13.7728 13.7728 0 0 1-5.666134-22.801066l43.7248-44.765867a13.7728 13.7728 0 0 1 11.2128-4.078933l314.043734 31.709866 89.002666-89.429333C702.122667 193.365333 736.119467 187.733333 753.237333 187.733333h0.238934c15.872 0 29.9008 4.7104 37.5808 12.407467 18.517333 18.568533 17.595733 71.543467-32.290134 122.5728l-0.1024 0.136533-89.770666 89.873067 25.105066 312.661333a13.824 13.824 0 0 1-3.874133 10.769067l-43.758933 44.765867a13.738667 13.738667 0 0 1-9.8304 4.1472z m-83.831467-301.1584c6.0416 0 11.3664 3.959467 13.141333 9.728l77.056 251.426133 23.159467-23.722667-25.122133-312.746666a13.806933 13.806933 0 0 1 3.9936-10.871467l94.242133-94.3104c23.125333-23.671467 31.249067-44.4416 34.013867-57.685333 3.413333-16.349867-0.4608-24.746667-1.604267-25.9584-5.051733-5.000533-43.4688-13.397333-85.3504 29.1328a0.9216 0.9216 0 0 1-0.068267 0.0512l-93.610666 93.952a13.7216 13.7216 0 0 1-11.1104 3.976533l-313.9584-31.709867-23.4496 24.029867 252.637866 80.4352a13.7728 13.7728 0 0 1 6.485334 21.845333l-96 118.135467a13.755733 13.755733 0 0 1-11.332267 5.051733l-140.731733-6.894933-4.573867 4.693333 120.3712 51.848534c3.396267 1.450667 6.058667 4.232533 7.406933 7.68l44.117334 114.346666 4.027733-4.096-1.1264-137.898666a13.789867 13.789867 0 0 1 4.864-10.615467l113.629867-96.5632a13.738667 13.738667 0 0 1 8.874666-3.242667z" fill="#1296db" p-id="5421"></path></svg>